<?xml version="1.0" encoding="utf-8"?>
<!-- Generator: Adobe Illustrator 16.0.0, SVG Export Plug-In . SVG Version: 6.00 Build 0)  -->
<!DOCTYPE svg PUBLIC "-//W3C//DTD SVG 1.1//EN" "http://www.w3.org/Graphics/SVG/1.1/DTD/svg11.dtd">
<svg version="1.1" id="Layer_1" xmlns="http://www.w3.org/2000/svg" xmlns:xlink="http://www.w3.org/1999/xlink" x="0px" y="0px"
	 width="128px" height="128px" viewBox="0 0 128 128" enable-background="new 0 0 128 128" xml:space="preserve">
<g>
	<g>
		<g>
			<g>
				<path fill="#282D33" d="M64.5,83.516L46.766,65.779c-2.384-2.384-3.698-5.554-3.698-8.926s1.313-6.542,3.698-8.926l0.158-0.158
					c2.382-2.384,5.552-3.697,8.924-3.697c3.245,0,6.303,1.216,8.653,3.432c2.349-2.216,5.408-3.432,8.654-3.432
					c3.372,0,6.542,1.313,8.926,3.697l0.173,0.178c4.902,4.901,4.902,12.91-0.02,17.832L64.5,83.516z M55.848,48.073
					c-2.304,0-4.468,0.896-6.096,2.525l-0.158,0.158c-1.629,1.628-2.526,3.794-2.526,6.098s0.897,4.469,2.526,6.098L64.5,77.859
					l14.905-14.907c3.363-3.363,3.363-8.834,0.001-12.196l-0.173-0.178c-1.608-1.608-3.774-2.505-6.078-2.505
					c-2.305,0-4.471,0.896-6.099,2.525l-2.558,2.555l-2.554-2.555C60.316,48.97,58.151,48.073,55.848,48.073z"/>
			</g>
		</g>
		<g>
			<g>
				<path fill="none" stroke="#282D33" stroke-width="4" d="M44.999,52.916"/>
			</g>
		</g>
		<g>
			<g>
				<rect x="61.029" fill="#282D33" width="4" height="13.089"/>
			</g>
			<g>
				
					<rect x="28.129" y="12.663" transform="matrix(0.5001 0.866 -0.866 0.5001 30.0332 -22.6979)" fill="#282D33" width="13.091" height="4"/>
			</g>
			<g>
				
					<rect x="7.634" y="33.869" transform="matrix(0.866 0.5 -0.5 0.866 19.8322 -2.2848)" fill="#282D33" width="13.091" height="4"/>
			</g>
			<g>
				<rect x="0.484" y="62.481" fill="#282D33" width="13.094" height="4"/>
			</g>
			<g>
				<rect x="114.42" y="60.541" fill="#282D33" width="13.096" height="4"/>
			</g>
			<g>
				
					<rect x="110.85" y="27.641" transform="matrix(0.4999 0.8661 -0.8661 0.4999 86.0419 -80.6409)" fill="#282D33" width="4.001" height="13.091"/>
			</g>
			<g>
				
					<rect x="89.643" y="7.142" transform="matrix(0.8661 0.4999 -0.4999 0.8661 19.1167 -43.9809)" fill="#282D33" width="4.001" height="13.093"/>
			</g>
		</g>
	</g>
	<g>
		<g>
			<path fill="#282D33" d="M96.197,128h-4V90.276l0.584-0.586c7.16-7.174,11.103-16.705,11.103-26.837c0-20.953-17.045-38-37.995-38
				c-20.954,0-38.001,17.047-38.001,38c0,0.576,0.021,1.148,0.045,1.721l0.025,0.581L16.468,85.061h7.827v17.789
				c0,4.847,3.94,8.789,8.783,8.789h19.083V128h-4v-12.361H33.078c-7.049,0-12.783-5.737-12.783-12.789V89.061H9.538l14.375-24.899
				c-0.015-0.435-0.025-0.871-0.025-1.309c0-23.159,18.842-42,42.001-42c23.156,0,41.995,18.841,41.995,42
				c0,10.92-4.144,21.209-11.687,29.066V128z"/>
		</g>
	</g>
</g>
</svg>
